<?xml version="1.0" standalone="no"?>
<!DOCTYPE svg PUBLIC "-//W3C//DTD SVG 20010904//EN"
 "http://www.w3.org/TR/2001/REC-SVG-20010904/DTD/svg10.dtd">
<svg version="1.0" xmlns="http://www.w3.org/2000/svg"
 width="240.000000pt" height="210.000000pt" viewBox="0 0 240.000000 210.000000"
 preserveAspectRatio="xMidYMid meet">
<metadata>
Created by potrace 1.15, written by Peter Selinger 2001-2017
</metadata>
<g transform="translate(0.000000,210.000000) scale(0.100000,-0.100000)"
fill="#000000" stroke="none">
<path d="M983 2035 c-63 -18 -125 -48 -170 -84 -36 -28 -99 -119 -130 -186
-10 -22 -26 -46 -36 -53 -23 -18 -101 -135 -167 -252 -29 -52 -75 -131 -101
-175 -76 -130 -135 -244 -182 -351 -24 -55 -61 -126 -81 -157 -19 -32 -34 -57
-31 -57 38 0 120 113 164 227 40 102 106 226 319 593 30 52 73 119 95 149 22
30 34 51 26 47 -8 -4 -5 0 5 8 11 9 22 16 25 16 3 0 24 34 45 75 58 111 77
128 169 149 81 19 197 17 254 -5 67 -25 156 -134 235 -287 21 -39 21 -44 7
-70 -9 -15 -42 -94 -74 -177 -32 -82 -86 -222 -120 -310 -35 -88 -82 -214
-105 -280 -66 -185 -91 -241 -133 -290 -41 -48 -57 -56 -57 -27 -1 70 -116
204 -213 248 -61 27 -66 28 -243 29 l-180 0 -75 -37 c-40 -21 -92 -54 -114
-73 l-40 -35 35 20 c92 52 113 60 182 71 80 13 290 6 349 -11 52 -15 138 -79
180 -133 35 -47 60 -112 74 -192 4 -22 9 -43 12 -47 8 -14 45 12 118 81 81 76
114 90 237 98 81 5 91 4 142 -21 31 -15 74 -49 99 -76 45 -49 113 -169 118
-205 3 -28 -172 -205 -203 -205 -4 0 -8 14 -8 30 0 36 -24 96 -48 123 -46 52
-170 87 -239 68 -56 -16 -135 -80 -147 -119 l-9 -32 -79 0 c-85 0 -126 14
-152 52 -13 18 -15 38 -10 100 6 73 5 79 -19 112 -25 31 -32 35 -112 46 -47 7
-136 10 -198 8 -95 -4 -121 -9 -171 -31 -32 -15 -60 -27 -62 -27 -1 0 10 30
25 68 27 66 29 67 92 95 57 24 74 27 149 24 67 -3 102 -10 165 -36 87 -35 112
-53 127 -90 7 -19 11 -22 21 -12 9 9 8 20 -9 48 -17 30 -34 41 -110 71 -149
59 -252 55 -385 -13 l-29 -16 0 59 c0 68 -14 87 -70 96 -28 5 -41 1 -63 -18
l-29 -23 46 -12 c36 -9 47 -17 52 -37 11 -44 -3 -136 -30 -197 l-26 -57 28 6
c15 4 55 18 90 31 72 27 199 31 340 11 78 -10 83 -13 103 -45 19 -30 20 -43
14 -108 l-7 -74 35 -38 35 -38 115 -3 114 -4 37 32 c22 19 36 41 36 55 0 12 8
33 19 46 16 20 27 23 77 22 118 -4 199 -63 219 -160 10 -48 15 -57 31 -55 34
7 166 105 213 160 25 29 63 62 83 73 42 21 53 38 75 112 22 75 53 132 123 226
34 46 106 165 160 265 54 99 115 208 135 241 44 73 88 166 105 220 7 22 24 67
39 99 19 43 23 60 14 63 -8 3 -13 22 -13 48 0 55 -19 108 -71 195 -55 94 -119
154 -183 174 -41 13 -73 14 -166 8 -145 -10 -176 -24 -292 -132 l-87 -81 -16
37 c-9 21 -26 52 -38 68 -13 17 -40 58 -60 91 -42 70 -110 139 -151 155 -50
19 -205 22 -263 5z m1054 -216 c56 -27 101 -79 158 -183 36 -66 48 -100 52
-146 3 -33 10 -57 14 -54 16 9 10 -16 -16 -66 -14 -27 -25 -56 -25 -64 0 -21
-54 -144 -96 -216 -73 -128 -164 -293 -194 -353 -17 -34 -48 -87 -70 -117
-100 -140 -141 -205 -157 -250 -17 -47 -33 -65 -33 -37 0 26 -101 176 -137
205 -71 55 -120 74 -192 73 -70 -1 -163 -21 -211 -46 -16 -8 -61 -43 -101 -77
-58 -50 -70 -57 -64 -38 13 43 36 83 79 140 44 58 74 119 102 210 41 131 106
286 126 301 13 11 17 18 9 20 -9 3 -7 19 9 59 20 50 52 101 37 58 -4 -10 -3
-18 2 -18 4 0 13 17 19 38 11 38 52 69 72 57 5 -3 11 -1 15 5 4 6 10 8 15 5 4
-3 13 1 19 9 10 12 7 13 -21 6 -68 -17 -83 -24 -95 -39 -29 -40 -17 7 40 152
38 95 67 157 76 157 7 0 11 -6 8 -13 -11 -29 9 -39 34 -17 20 17 21 19 4 13
-17 -6 -18 -5 -7 9 7 9 11 21 10 27 -4 15 138 169 175 188 69 36 271 37 344 2z"/>
<path d="M306 686 c-21 -8 -44 -20 -50 -26 -6 -6 7 -4 29 6 58 24 202 12 315
-27 98 -33 153 -82 165 -146 9 -52 23 -73 40 -67 13 5 13 10 0 34 -8 16 -15
37 -15 46 0 26 -48 102 -71 115 -113 60 -333 95 -413 65z"/>
</g>
</svg>
